<?xml version="1.0" encoding="utf-8"?>
<svg version="1.1" xmlns="http://www.w3.org/2000/svg" xmlns:xlink="http://www.w3.org/1999/xlink" x="0px" y="0px"
	 width="66px" height="66px" viewBox="0 0 66 66" style="enable-background:new 0 0 66 66;" preserveAspectRatio="xMidYMid meet" xml:space="preserve">
<circle style="fill:#07C4C1;" cx="33" cy="33" r="33"/>
<g>
	<path style="fill:#FFD000;" d="M21,38.8v1.5c-0.1,1.2-0.3,1.9-0.8,2.2c-0.5,0.3-1.2,0.5-1.9,0.5h-3.3c-0.8,0-1.3-0.3-1.5-0.8
		c-0.3-0.5-0.4-1.2-0.4-1.9v-1.8c0.1-0.8,0.1-1.3,0.1-1.7c0-0.4,0.5-1.2,1.3-2.3L26.8,15c0.4-0.6,1-1,1.8-1.2s1.4,0,2.1,0.4l1.5,1
		c0.6,0.5,1,1.1,1.1,1.8c0.1,0.8,0,1.4-0.4,2l-10.2,15c-0.4,0.6-0.8,1.2-1.1,1.7S21,37.3,21,38.8z M46.5,40.6c0,0.8-0.3,1.4-0.8,1.9
		c-0.5,0.5-1.2,0.8-1.9,0.8h-5.3v6.2c0,0.8-0.3,1.4-0.8,1.9c-0.5,0.5-1.2,0.8-1.9,0.8H34c-0.8,0-1.4-0.3-1.9-0.8
		c-0.5-0.5-0.8-1.2-0.8-1.9v-6.2h-5.8c-0.8,0-1.4-0.3-1.9-0.8c-0.5-0.5-0.8-1.2-0.8-1.9v-1.7c0-0.8,0.3-1.4,0.8-1.9
		c0.5-0.5,1.2-0.8,1.9-0.8h5.8V30c0-0.8,0.3-1.4,0.8-1.9c0.5-0.5,1.2-0.8,1.9-0.8h1.8c0.8,0,1.4,0.3,1.9,0.8
		c0.5,0.5,0.8,1.2,0.8,1.9v6.1h5.3c0.8,0,1.4,0.3,1.9,0.8c0.5,0.5,0.8,1.2,0.8,1.9V40.6z M41,20.4v5.8h1.2v-2.6l2.6,2.6h1.4v0
		l-3-2.9l2.7-2.8h-1.4l-2.4,2.4v-2.4H41z M50.4,20.4h-1.2l-2.6,5.8H48l0.4-1.1h2.9l0.4,1.1H53L50.4,20.4z M48.8,24.3l1.1-2.6
		l1.1,2.6H48.8z"/>
</g>
</svg>
