<?xml version="1.0" encoding="utf-8"?>
<!DOCTYPE svg PUBLIC "-//W3C//DTD SVG 1.1//EN" "http://www.w3.org/Graphics/SVG/1.1/DTD/svg11.dtd">
<svg version="1.1" id="Pro_vas" xmlns="http://www.w3.org/2000/svg" xmlns:xlink="http://www.w3.org/1999/xlink" x="0px" y="0px"
	 width="141.25px" height="139.031px" viewBox="0 0 141.25 139.031" enable-background="new 0 0 141.25 139.031" preserveAspectRatio="xMidYMid meet"
	 xml:space="preserve">
<g>
	<path fill="#000166" d="M121.49,131.368c7.904-7.769,18.242-17.197,18.242-27.461c0-9.501-5.973-14.149-15.191-14.149
		c-4.922,0-9.984,1.25-14.355,3.471l0.768,8.047c3.188-2.08,7.074-3.882,11.162-3.882c3.949,0,7.904,2.075,7.904,6.514
		c0,8.872-16.43,22.607-20.938,26.973v8.115h32.174v-7.627H121.49z M55.768,0.03C22.33,0.03,0.039,24.034,0.039,57.252
		c0,31.294,22.721,57.231,55.729,57.231c32.787,0,55.508-25.938,55.508-57.231C111.275,24.034,88.984,0.03,55.768,0.03z
		 M55.768,98.189c-23.795,0-34.297-21.43-34.297-40.938c0-20.786,12.646-40.933,34.297-40.933c21.426,0,34.072,20.146,34.072,40.933
		C89.84,76.76,79.336,98.189,55.768,98.189z"/>
</g>
</svg>
