<?xml version="1.0" encoding="utf-8"?>
<svg version="1.1" xmlns="http://www.w3.org/2000/svg" xmlns:xlink="http://www.w3.org/1999/xlink" x="0px" y="0px"
	 width="135.9px" height="39.4px" viewBox="0 0 135.9 39.4" style="enable-background:new 0 0 135.9 39.4;" preserveAspectRatio="xMidYMid meet" xml:space="preserve">
<style type="text/css">
	.st0{fill-rule:evenodd;clip-rule:evenodd;fill:#5FDDF8;}
</style>
<desc>Created with Sketch.</desc>
<g id="Symbols">
	<g id="Footer" transform="translate(-215.000000, -135.000000)">
		<g id="radost_x5F_logo_x5F_od_x5F_O2_x5B_10_x5D_-_x28_1_x29_" transform="translate(215.000000, 135.000000)">
			<g id="Group-27" transform="translate(0.000000, 0.150747)">
				<path id="Fill-9" class="st0" d="M88.9,25.2c1.4-0.4,2.1-0.8,2.1-2.6h-2.1v-3.7h3.8v2.8c0,3.1-0.9,4.4-3.8,5.1V25.2z"/>
				<path id="Fill-11" class="st0" d="M9.3,22.3H4v5.3h5.1c1,0,1.7-0.3,2.3-0.8c0.5-0.5,0.7-1.1,0.7-1.8c0-0.7-0.2-1.3-0.7-1.8
					C10.9,22.6,10.2,22.3,9.3,22.3L9.3,22.3z M15.6,38.7h-4v-5.1c0-1-0.3-1.7-0.8-2.1c-0.5-0.4-1.2-0.6-2.3-0.6H4v7.7H0V18.9h10
					c2,0,3.5,0.6,4.7,1.8c1,1.1,1.5,2.4,1.5,3.9c0,1-0.3,2-0.8,2.8c-0.6,0.9-1.3,1.5-2.3,1.8c1,0.3,1.6,0.8,2,1.5
					c0.3,0.6,0.4,1.3,0.4,2.4V38.7z"/>
				<path id="Fill-13" class="st0" d="M25.9,31.5c-0.4,0.3-1.1,0.6-2,0.7c-1.1,0.2-1.8,0.4-2.1,0.6c-0.7,0.3-1,1-1,1.8
					c0,1.1,0.6,1.7,1.7,1.7c0.5,0,1.1-0.1,1.7-0.4s1-0.5,1.3-0.9c0.4-0.5,0.6-1.2,0.6-2.1c0-0.2,0-0.4,0-0.7
					C25.9,31.9,25.9,31.7,25.9,31.5L25.9,31.5z M30,38.7h-3.6c-0.1-0.2-0.2-0.6-0.4-1.2c-0.9,1-2.3,1.5-4.3,1.5
					c-1.4,0-2.5-0.3-3.4-0.9c-1-0.7-1.5-1.8-1.5-3.2c0-2,0.8-3.4,2.4-4.1c0.7-0.3,2.2-0.7,4.4-0.9c1.6-0.2,2.4-0.6,2.4-1.3
					c0-0.6-0.2-1-0.7-1.4c-0.5-0.3-1-0.5-1.6-0.5c-0.6,0-1.2,0.2-1.7,0.5c-0.5,0.4-0.8,0.9-0.9,1.6h-3.7c0.1-1.2,0.4-2.2,0.8-2.9
					c0.5-0.7,1.2-1.3,2.3-1.7c1-0.4,2.1-0.6,3.3-0.6c4.2,0,6.2,2,6.2,6V38.7z"/>
				<path id="Fill-15" class="st0" d="M41.6,31.7c0-3.1-1.1-4.7-3.3-4.7c-2.2,0-3.3,1.5-3.3,4.5c0,1.4,0.3,2.5,1,3.3
					c0.6,0.7,1.4,1.1,2.3,1.1c0.9,0,1.7-0.4,2.3-1.1C41.2,34,41.6,33,41.6,31.7L41.6,31.7z M45.2,38.7h-3.7v-1.8h-0.2
					c-0.9,1.5-2.3,2.3-4,2.3c-1.2,0-2.4-0.4-3.4-1.1c-1-0.7-1.8-1.7-2.2-2.8c-0.5-1.1-0.7-2.5-0.7-4c0-2.1,0.5-3.8,1.4-5.2
					c1.1-1.6,2.6-2.4,4.7-2.4c1.8,0,3.2,0.8,4.3,2.3v-7h3.9V38.7z"/>
				<path id="Fill-17" class="st0" d="M57.4,31.3c0-3-1.2-4.5-3.5-4.5c-2.4,0-3.6,1.5-3.6,4.5c0,3,1.2,4.5,3.6,4.5
					C56.2,35.8,57.4,34.3,57.4,31.3 M61.3,31.3c0,2.3-0.7,4.2-2,5.6c-1.3,1.4-3.2,2.1-5.4,2.1c-2.3,0-4.2-0.7-5.5-2.1
					c-1.3-1.4-2-3.3-2-5.6c0-2.3,0.7-4.2,2-5.6c1.3-1.4,3.2-2.1,5.5-2.1c2.3,0,4.2,0.7,5.5,2.2C60.7,27.2,61.3,29,61.3,31.3"/>
				<path id="Fill-19" class="st0" d="M75.5,34c0,1-0.3,2-0.8,2.7c-1.1,1.6-3,2.4-5.7,2.4c-1.9,0-3.4-0.4-4.8-1.3
					c-1.5-1-2.2-2.2-2.2-3.9h4c0,0.7,0.3,1.3,0.9,1.7c0.6,0.3,1.2,0.5,2,0.5c0.7,0,1.3-0.1,1.9-0.4c0.5-0.3,0.8-0.7,0.8-1.1
					c0-0.6-0.8-1.1-2.3-1.4c-2.3-0.5-3.8-0.9-4.4-1.2c-1.6-0.8-2.3-1.9-2.3-3.5c0-0.9,0.2-1.8,0.7-2.5c0.4-0.8,1.2-1.4,2.2-1.8
					c1-0.4,2.2-0.7,3.4-0.7c1.7,0,3,0.4,4.2,1.2c1.3,0.9,2,2.1,2.1,3.7h-3.8c-0.2-1.3-1.1-2-2.6-2c-0.6,0-1.2,0.1-1.6,0.4
					c-0.5,0.3-0.7,0.6-0.7,1c0,0.6,0.8,1,2.4,1.3c2.3,0.5,3.8,0.9,4.4,1.2C74.7,31.3,75.5,32.5,75.5,34"/>
				<path id="Fill-21" class="st0" d="M88.3,31.2c0,1.4-0.1,2.6-0.2,3.3c-0.2,1.3-0.7,2.3-1.3,3c-1,1.1-2.5,1.7-4.4,1.7
					c-1.2,0-2.2-0.2-3.2-0.7c-1-0.6-1.8-1.3-2.2-2.3c-0.4-0.9-0.6-1.9-0.6-3V20.1h3.9V24h8.1v2.8h-8.1v6c0,0.8,0.1,1.3,0.2,1.7
					c0.3,0.9,0.9,1.3,2,1.3c0.6,0,1.1-0.2,1.5-0.6c0.5-0.6,0.8-1.7,0.8-3.6V29h3.6V31.2z"/>
				<path id="Fill-23" class="st0" d="M128,31.3c-3,3-7.2,4.9-11.8,4.9c-4.6,0-8.8-1.9-11.8-4.9c-3-3-4.9-7.2-4.9-11.8
					c0-4.6,1.9-8.8,4.9-11.8c3-3,7.2-4.9,11.8-4.9c4.6,0,8.8,1.9,11.8,4.9c3,3,4.9,7.2,4.9,11.8C132.9,24.1,131,28.3,128,31.3
					 M130.1,5.6c-3.6-3.6-8.5-5.8-13.9-5.8c-5.4,0-10.4,2.2-13.9,5.8c-3.6,3.6-5.8,8.5-5.8,13.9c0,5.4,2.2,10.4,5.8,13.9
					c3.6,3.6,8.5,5.8,13.9,5.8c5.4,0,10.4-2.2,13.9-5.8c3.6-3.6,5.8-8.5,5.8-13.9C135.9,14.1,133.7,9.2,130.1,5.6"/>
				<path id="Fill-25" class="st0" d="M116.6,18.5h-6v-5.7h6c1.1,0,1.9,0.3,2.5,0.9c0.6,0.5,0.8,1.2,0.8,2c0,0.8-0.3,1.4-0.8,2
					C118.5,18.2,117.7,18.5,116.6,18.5L116.6,18.5z M125.9,18.5l0,3.5c0,1.8-0.3,3-0.8,3.5c-0.3,0.4-0.8,0.6-1.5,0.6
					c0,0-1.7,0.2-2.9-2.2c-0.5-1-0.8-1.8-1-2.4c0.9-0.3,1.7-0.8,2.3-1.5c1-1.1,1.5-2.6,1.5-4.2c0-1.7-0.5-3.1-1.5-4.3
					c-1.1-1.3-2.6-2-4.4-2h-13v3.4h1.8v16.3h4.1v-7.3h5.4c0.9,3,1.2,3.4,1.9,4.6c0.6,0.9,1.5,1.7,2.5,2.3c0.9,0.5,2,0.7,3.2,0.7
					c1.9,0,3.3-0.6,4.3-1.7c0.6-0.7,1.1-1.7,1.3-2.9c0.1-0.8,0.2-1.9,0.2-3.3l0-3H125.9z"/>
			</g>
		</g>
	</g>
</g>
</svg>
