<?xml version="1.0" encoding="utf-8"?>
<svg version="1.1"
	 id="svg2008" xmlns:cc="http://creativecommons.org/ns#" xmlns:dc="http://purl.org/dc/elements/1.1/" xmlns:inkscape="http://www.inkscape.org/namespaces/inkscape" xmlns:rdf="http://www.w3.org/1999/02/22-rdf-syntax-ns#" xmlns:sodipodi="http://sodipodi.sourceforge.net/DTD/sodipodi-0.dtd" xmlns:svg="http://www.w3.org/2000/svg"
	 xmlns="http://www.w3.org/2000/svg" xmlns:xlink="http://www.w3.org/1999/xlink" x="0px" y="0px" width="161.3px" height="80.4px"
	 viewBox="0 0 161.3 80.4" style="enable-background:new 0 0 161.3 80.4;" preserveAspectRatio="xMidYMid meet" xml:space="preserve">
<sodipodi:namedview  bordercolor="#666666" borderopacity="1.0" height="27.6mm" id="base" inkscape:current-layer="g4" inkscape:cx="492.42339" inkscape:cy="69.933437" inkscape:document-units="px" inkscape:pageopacity="0.0" inkscape:pageshadow="2" inkscape:window-height="761" inkscape:window-maximized="0" inkscape:window-width="1216" inkscape:window-x="115" inkscape:window-y="115" inkscape:zoom="12.15742" pagecolor="#ffffff" showgrid="false" units="mm" width="186.67mm">
	</sodipodi:namedview>
<g id="g4">
	<path id="path18" style="fill:#ED008C;" d="M0,36.7h16.1v16.4H0V36.7z"/>
	<path id="path20" style="fill:#ED008C;" d="M38.7,3.9h1.9c12.3,0,18.1,6.6,20.5,24.2l3.8-0.2L64.4,0H1.6L1,27.9l3.7,0.2
		c0.6-6.6,1.4-10.2,3.1-13.7c2.9-6.6,9-10.5,16.6-10.5H27v60.8c0,6.4-0.4,8.5-1.9,10c-1.3,1.2-3.8,1.7-6.8,1.7h-2.9v4.1h34.9v-4.1
		h-2.9c-2.9,0-5.5-0.5-6.7-1.7c-1.5-1.5-1.9-3.6-1.9-10L38.7,3.9"/>
	<path id="path22" style="fill:#ED008C;" d="M49.3,36.7h16.1v16.4H49.3V36.7z"/>
	<path id="path24" style="fill:#ED008C;" d="M96.8,36.7H113v16.4H96.8V36.7z"/>
	<path id="path26" style="fill:#ED008C;" d="M145.2,36.7h16.1v16.4h-16.1V36.7z"/>
</g>
</svg>
