<?xml version="1.0" encoding="utf-8"?>
<!-- Generator: Adobe Illustrator 21.1.0, SVG Export Plug-In . SVG Version: 6.00 Build 0)  -->
<svg version="1.1" id="Layer_1" xmlns="http://www.w3.org/2000/svg" xmlns:xlink="http://www.w3.org/1999/xlink" x="0px" y="0px"
	 viewBox="0 0 32 16" style="enable-background:new 0 0 32 16;" xml:space="preserve">
<g>
	<path d="M8,0C3.6,0,0,3.6,0,8s3.6,8,8,8s8-3.6,8-8S12.4,0,8,0z M8.9,3.1c0.7,0,1,0.5,1,1c0,0.6-0.6,1.2-1.3,1.2c-0.6,0-1-0.4-1-1
		C7.6,3.8,8,3.1,8.9,3.1z M6.9,12.9c-0.5,0-0.9-0.3-0.5-1.7L7,8.7c0-0.4,0-0.6-0.1-0.6c-0.2,0-0.8,0.3-1.2,0.6L5.4,8.2
		c1.3-1.1,2.7-1.7,3.4-1.7c0.5,0,0.6,0.6,0.3,1.6l-0.7,2.6c-0.1,0.5-0.1,0.6,0.1,0.6s0.7-0.2,1.2-0.6l0.3,0.4
		C8.7,12.4,7.4,12.9,6.9,12.9z"/>
</g>
<g>
	<path d="M24,0c-4.4,0-8,3.6-8,8s3.6,8,8,8s8-3.6,8-8S28.4,0,24,0z M26.8,12.2L24,9.4l-2.8,2.8l-1.4-1.4L22.6,8l-2.8-2.8l1.4-1.4
		L24,6.6l2.8-2.8l1.4,1.4L25.4,8l2.8,2.8L26.8,12.2z"/>
</g>
</svg>
