<?xml version="1.0" encoding="utf-8"?>
<svg version="1.1"
	 id="svg8" inkscape:version="0.92.2 (5c3e80d, 2017-08-06)" xmlns:cc="http://creativecommons.org/ns#" xmlns:dc="http://purl.org/dc/elements/1.1/" xmlns:inkscape="http://www.inkscape.org/namespaces/inkscape" xmlns:rdf="http://www.w3.org/1999/02/22-rdf-syntax-ns#" xmlns:sodipodi="http://sodipodi.sourceforge.net/DTD/sodipodi-0.dtd" xmlns:svg="http://www.w3.org/2000/svg"
	 xmlns="http://www.w3.org/2000/svg" xmlns:xlink="http://www.w3.org/1999/xlink" x="0px" y="0px" width="16px" height="16px"
	 viewBox="0 0 16 16" style="enable-background:new 0 0 16 16;" preserveAspectRatio="xMidYMid meet" xml:space="preserve">
<sodipodi:namedview  bordercolor="#666666" borderopacity="1.0" fit-margin-bottom="0" fit-margin-left="0" fit-margin-right="0" fit-margin-top="0" id="base" inkscape:current-layer="layer1" inkscape:cx="373.76673" inkscape:cy="180.47486" inkscape:document-units="px" inkscape:guide-bbox="true" inkscape:object-nodes="false" inkscape:pageopacity="0.0" inkscape:pageshadow="2" inkscape:snap-intersection-paths="false" inkscape:snap-object-midpoints="false" inkscape:window-height="1017" inkscape:window-maximized="1" inkscape:window-width="1920" inkscape:window-x="1358" inkscape:window-y="-8" inkscape:zoom="1" pagecolor="#ffffff" showgrid="false" showguides="true">
	</sodipodi:namedview>
<g id="layer1" transform="translate(-284.1986,-143.22636)" inkscape:groupmode="layer" inkscape:label="Capa 1">
	<g id="g7423">
		<path id="path1466" inkscape:connector-curvature="0" style="fill:#E4E1DA;" d="M289.9,153.6v5.7h6.8c0.4,0,0.7-0.1,1-0.1
			L289.9,153.6z"/>
		<path id="path1468" inkscape:connector-curvature="0" style="fill:#FFCCD5;" d="M284.2,149.5v6.2c0,1.5,1,2.8,2.3,3.3v-7.8
			L284.2,149.5z"/>
		<path id="path1486" inkscape:connector-curvature="0" style="fill:#E4E1DA;" d="M286.5,143.4c-1,0.4-1.8,1.1-2.1,2.1l2.1,1.5
			V143.4z"/>
		<path id="path1506" inkscape:connector-curvature="0" style="fill:#9DDF7B;" d="M289.9,143.2v6.2l10.2,7.2
			c0.1-0.3,0.1-0.6,0.1-0.9v-3.5c-1.9,0-3.4-0.5-4.4-1.1c-0.5-0.3-0.9-0.6-1.2-0.9s-0.5-0.5-0.6-0.5c-0.6-0.5-1.3-1.4-1.8-2.5
			c-0.5-1.1-0.8-2.5-0.8-3.8c0,0,0,0,0-0.1H289.9z"/>
		<path id="path1294" inkscape:connector-curvature="0" style="fill:#FCAB1A;" d="M284.5,145.3c-0.2,0.4-0.3,0.9-0.3,1.4v3.1
			l13.2,9.3c1.4-0.3,2.5-1.4,2.7-2.8L284.5,145.3z"/>
		<path id="path1292" inkscape:connector-curvature="0" style="fill:#FFD634;" d="M284.4,145.6c-0.1,0.4-0.2,0.8-0.2,1.2v2.8
			l13.5,9.5c1.2-0.3,2.1-1.3,2.4-2.4L284.4,145.6z"/>
		<path id="path1288" inkscape:connector-curvature="0" style="opacity:0.125;enable-background:new    ;" d="M287.7,143.2
			c-0.5,0-1,0.1-1.4,0.3v15.4c0.4,0.2,0.9,0.3,1.4,0.3h2.4v-16H287.7z"/>
		<path id="path1290" inkscape:connector-curvature="0" style="fill:#FFFFFF;" d="M287.7,143.2c-0.4,0-0.8,0.1-1.2,0.2V159
			c0.4,0.1,0.8,0.2,1.2,0.2h2.2v-16H287.7z"/>
		<path id="path1300" inkscape:connector-curvature="0" style="fill:#90C36C;" d="M291.3,143.2C291.3,143.2,291.3,143.3,291.3,143.2
			c0,1.4,0.3,2.8,0.8,3.9c0.5,1.1,1.1,2.1,1.8,2.5c0.1,0.1,0.3,0.3,0.6,0.5c0.3,0.3,0.7,0.6,1.2,0.9c1,0.6,2.5,1.1,4.4,1.1v-0.5
			c-1.8,0-3.2-0.5-4.2-1.1c-0.5-0.3-0.9-0.6-1.2-0.8c-0.3-0.2-0.5-0.4-0.7-0.6c-0.5-0.4-1.1-1.2-1.6-2.3c-0.5-1.1-0.8-2.4-0.8-3.6
			c0,0,0,0,0-0.1H291.3z"/>
		<path id="path1302" inkscape:connector-curvature="0" style="fill:#F4EFEB;" d="M291.6,143.2C291.6,143.2,291.6,143.3,291.6,143.2
			c0,2.7,1.4,5.4,2.5,6.2c0.5,0.4,2.4,2.5,6.1,2.5v-5.2c0-2-1.6-3.5-3.5-3.5H291.6z"/>
		<path id="path1304" inkscape:connector-curvature="0" style="fill:#90C36C;" d="M294.9,143.2c0,1.7,0.5,2.8,1.5,3.8
			c0.5,0.5,1,0.9,1.7,1.1c0.5,0.2,1.2,0.3,2.1,0.4V148c-0.8,0-1.4-0.2-1.9-0.3c-0.6-0.2-1-0.6-1.5-1c-0.9-0.9-1.3-1.8-1.3-3.4H294.9
			z"/>
		<path id="path1306" inkscape:connector-curvature="0" style="fill:#9DDF7B;" d="M295.2,143.2c0,1.6,0.4,2.7,1.4,3.6
			c0.9,0.8,1.6,1.3,3.6,1.4v-1.5c0-2-1.6-3.5-3.5-3.5H295.2z"/>
		<path id="path1308" inkscape:connector-curvature="0" style="fill:#3394E3;" d="M287.7,143.2c-0.2,0-0.3,0-0.5,0v6.8
			c0.3-0.1,0.7-0.2,1-0.2c0.3,0,0.6,0.1,0.9,0.2v-6.9H287.7z"/>
		<path id="path7363" inkscape:connector-curvature="0" style="fill:#0078D9;" d="M296.2,153.4c0,0-0.1,0-0.1,0
			c-0.4,0.3-0.9,0.4-1.3,0.4c-0.3,0-0.7-0.1-1-0.2c-0.1-0.1-0.3,0-0.3,0.1c-0.2,0.4-0.3,0.9-0.3,1.4v0c0,1.7,1.4,3.1,3.1,3.1
			c1.7,0,3.1-1.4,3.1-3.1c0,0,0,0,0,0c0-0.5-0.1-0.9-0.3-1.4c-0.1-0.1-0.2-0.2-0.3-0.1c-0.3,0.1-0.7,0.2-1,0.2
			c-0.5,0-0.9-0.1-1.3-0.4C296.4,153.4,296.3,153.4,296.2,153.4C296.3,153.4,296.3,153.4,296.2,153.4L296.2,153.4z"/>
		<path id="path7370" inkscape:connector-curvature="0" style="fill:#FFFFFF;" d="M296.2,153.5C296.2,153.5,296.2,153.5,296.2,153.5
			c-0.5,0.3-1,0.4-1.5,0.4c-0.4,0-0.7-0.1-1.1-0.2c-0.1,0-0.1,0-0.2,0.1c-0.2,0.4-0.3,0.9-0.3,1.3c0,0,0,0,0,0c0,1.7,1.3,3,3,3
			s3-1.3,3-3c0,0,0,0,0,0c0-0.5-0.1-0.9-0.3-1.3c0-0.1-0.1-0.1-0.2-0.1c-0.3,0.1-0.7,0.2-1.1,0.2
			C297.2,153.9,296.7,153.8,296.2,153.5C296.3,153.5,296.3,153.5,296.2,153.5L296.2,153.5z"/>
		<path id="path1312" inkscape:connector-curvature="0" style="fill:#DE1C25;" d="M296.3,153.6c-0.4,0.3-1,0.4-1.5,0.4
			c-0.4,0-0.8-0.1-1.1-0.2c-0.1,0.3-0.2,0.5-0.3,0.8h5.7c0-0.3-0.1-0.5-0.2-0.8c-0.3,0.2-0.7,0.2-1.1,0.2
			C297.2,154.1,296.7,153.9,296.3,153.6L296.3,153.6z"/>
		<path id="path1314" inkscape:connector-curvature="0" style="fill:#0078D9;" d="M293.4,154.8c0,0.1,0,0.2,0,0.3
			c0,1.6,1.3,2.9,2.9,2.9l0,0c1.6,0,2.9-1.3,2.9-2.9l0,0c0-0.1,0-0.2,0-0.3H293.4z"/>
		<g id="flowRoot1324" transform="matrix(0.25421626,0,0,0.22728026,283.49854,147.75783)">
			<path id="path5687" inkscape:connector-curvature="0" style="fill:#FFFFFF;" d="M46.9,38.4v1.2h-4.7c0.1-0.5,0.2-0.9,0.5-1.3
				c0.3-0.4,0.7-1,1.5-1.7c0.6-0.6,1-0.9,1.1-1.1c0.2-0.3,0.3-0.5,0.3-0.8c0-0.3-0.1-0.5-0.2-0.7c-0.2-0.2-0.4-0.2-0.7-0.2
				c-0.3,0-0.5,0.1-0.7,0.3c-0.2,0.2-0.3,0.4-0.3,0.8l-1.3-0.1c0.1-0.7,0.3-1.3,0.7-1.6c0.4-0.3,0.9-0.5,1.6-0.5
				c0.7,0,1.2,0.2,1.6,0.6c0.4,0.4,0.6,0.8,0.6,1.4c0,0.3-0.1,0.6-0.2,0.9c-0.1,0.3-0.3,0.6-0.5,0.9c-0.2,0.2-0.5,0.5-0.9,0.9
				c-0.4,0.4-0.7,0.6-0.8,0.8c-0.1,0.1-0.2,0.2-0.3,0.4H46.9z"/>
			<path id="path5689" inkscape:connector-curvature="0" style="fill:#FFFFFF;" d="M48.9,35.9c-0.3-0.1-0.6-0.3-0.8-0.6
				C48,35,48,34.8,48,34.5c0-0.5,0.2-0.9,0.5-1.3c0.4-0.3,0.9-0.5,1.5-0.5c0.7,0,1.2,0.2,1.5,0.5c0.4,0.3,0.5,0.8,0.5,1.3
				c0,0.3-0.1,0.6-0.3,0.9c-0.2,0.2-0.4,0.4-0.7,0.6c0.4,0.2,0.7,0.4,0.9,0.7c0.2,0.3,0.3,0.6,0.3,1c0,0.6-0.2,1.2-0.6,1.6
				c-0.4,0.4-0.9,0.6-1.6,0.6c-0.6,0-1.2-0.2-1.6-0.5c-0.5-0.4-0.7-0.9-0.7-1.6c0-0.4,0.1-0.7,0.3-1C48.2,36.3,48.5,36.1,48.9,35.9z
				 M49.2,34.5c0,0.3,0.1,0.5,0.2,0.6c0.2,0.1,0.4,0.2,0.6,0.2c0.3,0,0.5-0.1,0.6-0.2c0.2-0.2,0.2-0.4,0.2-0.6
				c0-0.2-0.1-0.4-0.2-0.6c-0.1-0.2-0.3-0.2-0.6-0.2c-0.3,0-0.5,0.1-0.6,0.2C49.3,34.1,49.2,34.3,49.2,34.5L49.2,34.5z M49.1,37.5
				c0,0.4,0.1,0.7,0.3,0.9c0.2,0.2,0.4,0.3,0.7,0.3c0.3,0,0.5-0.1,0.7-0.3c0.2-0.2,0.3-0.5,0.3-0.9c0-0.3-0.1-0.6-0.3-0.8
				c-0.2-0.2-0.4-0.3-0.7-0.3c-0.3,0-0.6,0.1-0.7,0.3C49.2,37,49.1,37.3,49.1,37.5L49.1,37.5z"/>
			<path id="path5691" inkscape:connector-curvature="0" style="fill:#FFFFFF;" d="M55.4,32.7c0.7,0,1.2,0.2,1.6,0.7
				c0.5,0.6,0.7,1.5,0.7,2.8c0,1.3-0.2,2.3-0.7,2.8c-0.4,0.5-0.9,0.7-1.6,0.7c-0.7,0-1.2-0.3-1.6-0.8c-0.4-0.5-0.6-1.4-0.6-2.8
				c0-1.3,0.2-2.2,0.7-2.8C54.2,32.9,54.8,32.7,55.4,32.7z M55.4,33.8c-0.2,0-0.3,0.1-0.4,0.2c-0.1,0.1-0.2,0.3-0.3,0.5
				c-0.1,0.3-0.1,0.9-0.1,1.7c0,0.8,0,1.4,0.1,1.7c0.1,0.3,0.2,0.5,0.3,0.6c0.1,0.1,0.3,0.2,0.4,0.2c0.2,0,0.3-0.1,0.4-0.2
				c0.1-0.1,0.2-0.3,0.3-0.6c0.1-0.3,0.1-0.9,0.1-1.7c0-0.8,0-1.4-0.1-1.7c-0.1-0.3-0.2-0.5-0.3-0.6C55.7,33.8,55.6,33.8,55.4,33.8z
				"/>
		</g>
		<ellipse id="circle1296" style="fill:#0179DA;" cx="288.2" cy="152.8" rx="2.9" ry="2.9"/>
		<path id="path1298" inkscape:connector-curvature="0" style="fill:#FFFFFF;" d="M288.2,151C288.2,151,288.2,151,288.2,151
			C288.2,151,288.2,151,288.2,151C288.2,151,288.2,151,288.2,151C288.2,151,288.2,151,288.2,151C288.2,151,288.2,151,288.2,151
			C288.2,151,288.1,151,288.2,151C288.1,151,288.1,151,288.2,151c-0.1,0-0.1,0-0.1,0c0,0,0,0,0,0c0,0,0,0,0,0c0,0,0,0,0,0
			c0,0,0,0,0,0c0,0,0,0,0,0c0,0,0,0,0,0l-0.3,0.8c0,0,0,0,0,0l-0.2,0.6l-0.1,0.4v0l-0.5,1.5c0,0.1,0,0.1,0,0.2c0,0,0.1,0,0.1,0.1
			c0,0,0,0,0,0c0,0,0,0,0,0c0,0,0,0,0,0c0,0,0,0,0,0c0,0,0,0,0,0c0,0,0,0,0,0c0,0,0,0,0,0c0,0,0,0,0,0c0,0,0,0,0,0c0,0,0,0,0,0l0,0
			v0l1-0.9l1,0.9c0,0,0,0,0,0l0,0c0,0,0,0,0,0c0,0,0,0,0,0c0,0,0,0,0,0c0,0,0,0,0,0c0,0,0,0,0,0c0,0,0,0,0,0c0,0,0,0,0,0
			c0,0,0,0,0,0c0,0,0,0,0,0c0,0,0,0,0,0c0,0,0.1,0,0.1-0.1c0.1-0.1,0.1-0.1,0-0.2l-0.8-2.4c0,0,0,0,0,0l-0.3-0.8c0,0,0,0,0,0
			c0,0,0,0,0,0c0,0,0,0,0,0c0,0,0,0,0,0c0,0,0,0,0,0c0,0,0,0,0,0c0,0,0,0,0,0c0,0,0,0,0,0C288.3,151,288.3,151,288.2,151
			C288.3,151,288.3,151,288.2,151C288.3,151,288.3,151,288.2,151C288.3,151,288.3,151,288.2,151C288.3,151,288.2,151,288.2,151
			C288.2,151,288.2,151,288.2,151C288.2,151,288.2,151,288.2,151L288.2,151z"/>
		<path id="path1504" inkscape:connector-curvature="0" style="opacity:0.24;enable-background:new    ;" d="M300.1,156.6
			C300.1,156.7,300.1,156.7,300.1,156.6C300.1,156.7,300.1,156.7,300.1,156.6L300.1,156.6z"/>
		<path id="path1502" inkscape:connector-curvature="0" style="opacity:0.24;enable-background:new    ;" d="M300.1,156.7
			C300.1,156.7,300,156.7,300.1,156.7C300,156.7,300.1,156.7,300.1,156.7z"/>
		<path id="path1500" inkscape:connector-curvature="0" style="opacity:0.24;enable-background:new    ;" d="M300,156.7
			c0,0,0,0.1,0,0.1C300,156.8,300,156.8,300,156.7z"/>
		<path id="path1496" inkscape:connector-curvature="0" style="opacity:0.24;enable-background:new    ;" d="M287.6,143.2
			C287.5,143.2,287.5,143.2,287.6,143.2C287.5,143.2,287.5,143.2,287.6,143.2z"/>
		<path id="path1494" inkscape:connector-curvature="0" style="opacity:0.24;enable-background:new    ;" d="M287.4,143.2
			C287.4,143.2,287.3,143.2,287.4,143.2C287.3,143.2,287.4,143.2,287.4,143.2z"/>
		<path id="path1492" inkscape:connector-curvature="0" style="opacity:0.24;enable-background:new    ;" d="M287.2,143.3
			C287.2,143.3,287.2,143.3,287.2,143.3C287.2,143.3,287.2,143.3,287.2,143.3z"/>
		<path id="path1490" inkscape:connector-curvature="0" style="opacity:0.24;enable-background:new    ;" d="M287.1,143.3
			C287,143.3,287,143.3,287.1,143.3C287,143.3,287,143.3,287.1,143.3z"/>
		<path id="path1488" inkscape:connector-curvature="0" style="opacity:0.24;enable-background:new    ;" d="M286.9,143.3
			C286.9,143.3,286.9,143.3,286.9,143.3C286.9,143.3,286.9,143.3,286.9,143.3z"/>
		<path id="path1484" inkscape:connector-curvature="0" style="opacity:0.24;enable-background:new    ;" d="M284.4,145.6
			c0,0,0,0.1,0,0.1C284.4,145.7,284.4,145.6,284.4,145.6z"/>
		<path id="path1482" inkscape:connector-curvature="0" style="opacity:0.24;enable-background:new    ;" d="M284.4,145.7
			c0,0,0,0.1,0,0.1C284.3,145.8,284.3,145.8,284.4,145.7z"/>
		<path id="path1480" inkscape:connector-curvature="0" style="opacity:0.24;enable-background:new    ;" d="M284.3,145.9
			c0,0,0,0.1,0,0.1C284.3,145.9,284.3,145.9,284.3,145.9z"/>
		<path id="path1478" inkscape:connector-curvature="0" style="opacity:0.24;enable-background:new    ;" d="M284.3,146
			c0,0,0,0.1,0,0.1C284.3,146.1,284.3,146,284.3,146z"/>
		<path id="path1476" inkscape:connector-curvature="0" style="opacity:0.24;enable-background:new    ;" d="M284.2,146.2
			c0,0,0,0.1,0,0.1C284.2,146.2,284.2,146.2,284.2,146.2z"/>
		<path id="path1474" inkscape:connector-curvature="0" style="opacity:0.24;enable-background:new    ;" d="M284.2,146.3
			c0,0,0,0.1,0,0.1C284.2,146.4,284.2,146.3,284.2,146.3z"/>
		<path id="path1472" inkscape:connector-curvature="0" style="opacity:0.24;enable-background:new    ;" d="M284.2,146.4
			c0,0,0,0.1,0,0.1C284.2,146.5,284.2,146.5,284.2,146.4z"/>
		<path id="path1470" inkscape:connector-curvature="0" style="opacity:0.24;enable-background:new    ;" d="M284.2,146.6
			c0,0,0,0.1,0,0.1C284.2,146.7,284.2,146.7,284.2,146.6z"/>
		<path id="path1464" inkscape:connector-curvature="0" style="opacity:0.24;enable-background:new    ;" d="M297.7,159.1
			L297.7,159.1c0,0,0.1,0,0.1,0C297.8,159.1,297.7,159.1,297.7,159.1L297.7,159.1z"/>
		<path id="path1462" inkscape:connector-curvature="0" style="opacity:0.24;enable-background:new    ;" d="M298.9,158.5
			c-0.1,0-0.1,0.1-0.2,0.1C298.7,158.6,298.8,158.5,298.9,158.5z"/>
		<path id="path1460" inkscape:connector-curvature="0" style="opacity:0.24;enable-background:new    ;" d="M298.7,158.6
			C298.7,158.6,298.6,158.6,298.7,158.6C298.6,158.6,298.7,158.6,298.7,158.6z"/>
		<path id="path1458" inkscape:connector-curvature="0" style="opacity:0.24;enable-background:new    ;" d="M298.6,158.7
			c-0.1,0-0.1,0.1-0.2,0.1C298.5,158.7,298.5,158.7,298.6,158.7z"/>
		<path id="path1456" inkscape:connector-curvature="0" style="opacity:0.24;enable-background:new    ;" d="M298.4,158.8
			C298.4,158.8,298.3,158.8,298.4,158.8C298.3,158.8,298.4,158.8,298.4,158.8z"/>
		<path id="path1454" inkscape:connector-curvature="0" style="opacity:0.24;enable-background:new    ;" d="M298.3,158.8
			c-0.1,0-0.1,0.1-0.2,0.1C298.2,158.9,298.2,158.9,298.3,158.8z"/>
		<path id="path1452" inkscape:connector-curvature="0" style="opacity:0.24;enable-background:new    ;" d="M286.8,159.1
			C286.9,159.1,286.9,159.1,286.8,159.1C286.9,159.1,286.9,159.1,286.8,159.1z"/>
		<path id="path1450" inkscape:connector-curvature="0" style="opacity:0.24;enable-background:new    ;" d="M287,159.1
			C287,159.2,287,159.2,287,159.1C287,159.2,287,159.2,287,159.1z"/>
		<path id="path1448" inkscape:connector-curvature="0" style="opacity:0.24;enable-background:new    ;" d="M287.1,159.2
			C287.2,159.2,287.2,159.2,287.1,159.2C287.2,159.2,287.2,159.2,287.1,159.2z"/>
		<path id="path1446" inkscape:connector-curvature="0" style="opacity:0.24;enable-background:new    ;" d="M287.3,159.2
			C287.3,159.2,287.4,159.2,287.3,159.2C287.4,159.2,287.3,159.2,287.3,159.2z"/>
		<path id="rect1328" inkscape:connector-curvature="0" style="opacity:0.24;enable-background:new    ;" d="M287.5,159.2
			C287.5,159.2,287.5,159.2,287.5,159.2C287.5,159.2,287.5,159.2,287.5,159.2z"/>
	</g>
</g>
</svg>
