<?xml version="1.0" encoding="utf-8"?>
<svg version="1.1" id="Layer_1" xmlns="http://www.w3.org/2000/svg" xmlns:xlink="http://www.w3.org/1999/xlink" x="0px" y="0px"
	 width="16px" height="16px" viewBox="0 0 16 16" style="enable-background:new 0 0 16 16;" preserveAspectRatio="xMidYMid meet" xml:space="preserve">
<path style="fill-rule:evenodd;clip-rule:evenodd;fill:#1977F3;" d="M16,8c0-4.4-3.6-8-8-8S0,3.6,0,8c0,4,2.9,7.3,6.8,7.9v-5.6h-2V8
	h2V6.2c0-2,1.2-3.1,3-3.1c0.9,0,1.8,0.2,1.8,0.2v2h-1c-1,0-1.3,0.6-1.3,1.2V8h2.2l-0.4,2.3H9.2v5.6C13.1,15.3,16,12,16,8L16,8z"/>
<path style="fill-rule:evenodd;clip-rule:evenodd;fill:#FEFEFE;" d="M11.1,10.3L11.5,8H9.2V6.5c0-0.6,0.3-1.2,1.3-1.2h1v-2
	c0,0-0.9-0.2-1.8-0.2c-1.8,0-3,1.1-3,3.1V8h-2v2.3h2v5.6C7.2,16,7.6,16,8,16c0.4,0,0.8,0,1.2-0.1v-5.6L11.1,10.3L11.1,10.3z"/>
</svg>
