<?xml version="1.0" encoding="utf-8"?>
<svg version="1.1" id="Layer_1" xmlns="http://www.w3.org/2000/svg" xmlns:xlink="http://www.w3.org/1999/xlink" x="0px" y="0px"
	 width="16px" height="16px" viewBox="0 0 16 16" style="enable-background:new 0 0 16 16;" preserveAspectRatio="xMidYMid meet" xml:space="preserve">
<path d="M12.3,2.4C10.7,2,10.2,2.9,8,2.9S5.3,2,3.7,2.4C2,2.9,1.2,4.6,0.5,7.7c-0.8,3.2-0.6,5.4,0.3,5.9c0.9,0.4,1.9-0.5,2.9-1.8
	c0.8-0.9,1.2-1,4.4-1c3.2,0,3.5,0,4.4,1c1,1.2,2,2.2,2.9,1.8c0.9-0.4,1-2.7,0.3-5.9C14.8,4.6,13.9,2.9,12.3,2.4z M3.4,8.3
	C2.7,8.3,2,7.6,2,6.9c0-0.8,0.6-1.4,1.4-1.4s1.4,0.6,1.4,1.4S4.2,8.3,3.4,8.3z M9.9,7.6c-0.4,0-0.7-0.3-0.7-0.7s0.3-0.7,0.7-0.7
	c0.4,0,0.7,0.3,0.7,0.7C10.6,7.2,10.3,7.6,9.9,7.6z M11.4,9.1c-0.4,0-0.7-0.3-0.7-0.7c0-0.4,0.3-0.7,0.7-0.7c0.4,0,0.7,0.3,0.7,0.7
	C12.1,8.8,11.8,9.1,11.4,9.1z M11.4,6c-0.4,0-0.7-0.3-0.7-0.7s0.3-0.7,0.7-0.7c0.4,0,0.7,0.3,0.7,0.7C12.1,5.7,11.8,6,11.4,6z
	 M12.9,7.6c-0.4,0-0.7-0.3-0.7-0.7s0.3-0.7,0.7-0.7s0.7,0.3,0.7,0.7C13.6,7.2,13.3,7.6,12.9,7.6z"/>
</svg>
