<?xml version="1.0" encoding="utf-8"?>
<svg version="1.1" xmlns="http://www.w3.org/2000/svg" xmlns:xlink="http://www.w3.org/1999/xlink" x="0px" y="0px"
	 width="16px" height="16px" viewBox="0 0 16 16" style="enable-background:new 0 0 16 16;" preserveAspectRatio="xMidYMid meet" xml:space="preserve">
<path style="fill:#4285F4;" d="M1.1,14h2.5V7.8L0,5.1v7.8C0,13.5,0.5,14,1.1,14"/>
<path style="fill:#34A853;" d="M12.4,14h2.5c0.6,0,1.1-0.5,1.1-1.1V5.1l-3.6,2.7"/>
<path style="fill:#FBBC04;" d="M12.4,3.1v4.7L16,5.1V3.6c0-1.3-1.5-2.1-2.6-1.3"/>
<path style="fill:#EA4335;" d="M3.6,7.8V3.1L8,6.4l4.4-3.3v4.7L8,11.1"/>
<path style="fill:#C5221F;" d="M0,3.6v1.5l3.6,2.7V3.1l-1-0.8C1.5,1.5,0,2.3,0,3.6"/>
</svg>
