<?xml version="1.0" encoding="utf-8"?>
<svg version="1.1" id="Layer_1" xmlns="http://www.w3.org/2000/svg" xmlns:xlink="http://www.w3.org/1999/xlink" x="0px" y="0px"
	 width="16px" height="16px" viewBox="0 0 16 16" style="enable-background:new 0 0 16 16;" preserveAspectRatio="xMidYMid meet" xml:space="preserve">
<path style="fill:#1A73E8;" d="M9.7,0.3C9.2,0.1,8.6,0,8,0C6.3,0,4.7,0.8,3.7,2l2.6,2.2L9.7,0.3z"/>
<path style="fill:#EA4335;" d="M3.7,2C2.9,3,2.4,4.2,2.4,5.6c0,1.1,0.2,1.9,0.6,2.7l3.4-4C6.4,4.2,3.7,2,3.7,2z"/>
<path style="fill:#4285F4;" d="M8,3.4c1.2,0,2.1,1,2.1,2.1c0,0.5-0.2,1-0.5,1.4c0,0,1.7-2,3.3-4c-0.7-1.3-1.8-2.3-3.3-2.7L6.4,4.2
	C6.8,3.7,7.3,3.4,8,3.4"/>
<path style="fill:#FBBC04;" d="M8,7.7c-1.2,0-2.1-1-2.1-2.1c0-0.5,0.2-1,0.5-1.4L3,8.2c0.6,1.3,1.5,2.3,2.5,3.6l4.1-4.9
	C9.2,7.4,8.7,7.7,8,7.7"/>
<path style="fill:#34A853;" d="M9.6,13.2c1.9-2.9,4-4.2,4-7.6c0-0.9-0.2-1.8-0.6-2.6l-7.4,8.8c0.3,0.4,0.6,0.9,1,1.4
	C7.6,15,7.3,16,8,16S8.4,14.9,9.6,13.2"/>
</svg>
