<?xml version="1.0" encoding="utf-8"?>
<svg version="1.1" id="Layer_1" xmlns="http://www.w3.org/2000/svg" xmlns:xlink="http://www.w3.org/1999/xlink" x="0px" y="0px"
	 width="16px" height="16px" viewBox="0 0 16 16" style="enable-background:new 0 0 16 16;" preserveAspectRatio="xMidYMid meet" xml:space="preserve">
<radialGradient id="SVGID_1_" cx="220.8672" cy="-545.1187" r="7.9985" gradientTransform="matrix(0 -1.982 -1.8439 0 -1000.8942 454.9864)" gradientUnits="userSpaceOnUse">
	<stop  offset="0" style="stop-color:#FFDD55"/>
	<stop  offset="0.1" style="stop-color:#FFDD55"/>
	<stop  offset="0.5" style="stop-color:#FF543E"/>
	<stop  offset="1" style="stop-color:#C837AB"/>
</radialGradient>
<path style="fill:url(#SVGID_1_);" d="M8,0C4.7,0,3.7,0,3.5,0C2.8,0.1,2.4,0.2,1.9,0.4C1.6,0.6,1.3,0.8,1,1.1C0.5,1.6,0.2,2.3,0.1,3
	C0,3.4,0,3.5,0,5.4C0,6,0,6.9,0,8c0,3.3,0,4.3,0,4.5c0.1,0.7,0.2,1.1,0.4,1.5c0.4,0.9,1.2,1.5,2.2,1.8C2.9,15.9,3.3,16,3.7,16
	C3.9,16,6,16,8,16s4,0,4.2,0c0.5,0,0.9-0.1,1.2-0.2c1-0.2,1.8-0.9,2.2-1.8c0.2-0.4,0.3-0.9,0.4-1.5c0-0.1,0-2.3,0-4.5
	c0-2.2,0-4.4,0-4.5c-0.1-0.6-0.2-1.1-0.4-1.5c-0.2-0.4-0.4-0.7-0.7-0.9c-0.5-0.5-1.2-0.8-1.9-0.9C12.6,0,12.5,0,10.6,0H8z"/>
<radialGradient id="SVGID_2_" cx="141.496" cy="-452.0903" r="7.9985" gradientTransform="matrix(0.1739 0.8687 3.5818 -0.7172 1592.0051 -445.9938)" gradientUnits="userSpaceOnUse">
	<stop  offset="0" style="stop-color:#3771C8"/>
	<stop  offset="0.128" style="stop-color:#3771C8"/>
	<stop  offset="1" style="stop-color:#6600FF;stop-opacity:0"/>
</radialGradient>
<path style="fill:url(#SVGID_2_);" d="M8,0C4.7,0,3.7,0,3.5,0C2.8,0.1,2.4,0.2,1.9,0.4C1.6,0.6,1.3,0.8,1,1.1C0.5,1.6,0.2,2.3,0.1,3
	C0,3.4,0,3.5,0,5.4C0,6,0,6.9,0,8c0,3.3,0,4.3,0,4.5c0.1,0.7,0.2,1.1,0.4,1.5c0.4,0.9,1.2,1.5,2.2,1.8C2.9,15.9,3.3,16,3.7,16
	C3.9,16,6,16,8,16s4,0,4.2,0c0.5,0,0.9-0.1,1.2-0.2c1-0.2,1.8-0.9,2.2-1.8c0.2-0.4,0.3-0.9,0.4-1.5c0-0.1,0-2.3,0-4.5
	c0-2.2,0-4.4,0-4.5c-0.1-0.6-0.2-1.1-0.4-1.5c-0.2-0.4-0.4-0.7-0.7-0.9c-0.5-0.5-1.2-0.8-1.9-0.9C12.6,0,12.5,0,10.6,0H8z"/>
<path style="fill:#FFFFFF;" d="M8,2.1c-1.6,0-1.8,0-2.4,0c-0.6,0-1.1,0.1-1.4,0.3c-0.4,0.2-0.7,0.4-1,0.7c-0.3,0.3-0.5,0.7-0.7,1
	C2.3,4.5,2.2,4.9,2.1,5.6c0,0.6,0,0.8,0,2.4s0,1.8,0,2.4c0,0.6,0.1,1.1,0.3,1.4c0.2,0.4,0.4,0.7,0.7,1c0.3,0.3,0.7,0.5,1,0.7
	c0.4,0.1,0.8,0.2,1.4,0.3c0.6,0,0.8,0,2.4,0c1.6,0,1.8,0,2.4,0c0.6,0,1.1-0.1,1.4-0.3c0.4-0.2,0.7-0.4,1-0.7c0.3-0.3,0.5-0.7,0.7-1
	c0.1-0.4,0.2-0.8,0.3-1.4c0-0.6,0-0.8,0-2.4s0-1.8,0-2.4c0-0.6-0.1-1.1-0.3-1.4c-0.2-0.4-0.4-0.7-0.7-1c-0.3-0.3-0.7-0.5-1-0.7
	c-0.4-0.1-0.8-0.2-1.4-0.3C9.8,2.1,9.6,2.1,8,2.1L8,2.1z M7.5,3.2c0.2,0,0.3,0,0.5,0c1.6,0,1.8,0,2.4,0c0.6,0,0.9,0.1,1.1,0.2
	c0.3,0.1,0.5,0.2,0.7,0.4c0.2,0.2,0.3,0.4,0.4,0.7c0.1,0.2,0.2,0.5,0.2,1.1c0,0.6,0,0.8,0,2.4s0,1.8,0,2.4c0,0.6-0.1,0.9-0.2,1.1
	c-0.1,0.3-0.2,0.5-0.4,0.7c-0.2,0.2-0.4,0.3-0.7,0.4c-0.2,0.1-0.5,0.2-1.1,0.2c-0.6,0-0.8,0-2.4,0c-1.6,0-1.8,0-2.4,0
	c-0.6,0-0.9-0.1-1.1-0.2c-0.3-0.1-0.5-0.2-0.7-0.4c-0.2-0.2-0.3-0.4-0.4-0.7c-0.1-0.2-0.2-0.5-0.2-1.1c0-0.6,0-0.8,0-2.4
	s0-1.8,0-2.4c0-0.6,0.1-0.9,0.2-1.1C3.5,4.2,3.6,4,3.8,3.8s0.4-0.3,0.7-0.4C4.7,3.3,5,3.2,5.6,3.2C6.2,3.2,6.4,3.2,7.5,3.2L7.5,3.2z
	 M11.2,4.1c-0.4,0-0.7,0.3-0.7,0.7c0,0.4,0.3,0.7,0.7,0.7c0.4,0,0.7-0.3,0.7-0.7S11.5,4.1,11.2,4.1L11.2,4.1z M8,5C6.3,5,5,6.3,5,8
	s1.4,3,3,3c1.7,0,3-1.4,3-3S9.7,5,8,5L8,5z M8,6c1.1,0,2,0.9,2,2c0,1.1-0.9,2-2,2c-1.1,0-2-0.9-2-2C6,6.9,6.9,6,8,6z"/>
</svg>
