<?xml version="1.0" encoding="utf-8"?>
<svg version="1.1" id="Layer_1" xmlns="http://www.w3.org/2000/svg" xmlns:xlink="http://www.w3.org/1999/xlink" x="0px" y="0px"
	 width="16px" height="16px" viewBox="0 0 16 16" style="enable-background:new 0 0 16 16;" preserveAspectRatio="xMidYMid meet" xml:space="preserve">
<path style="fill:#4CD960;" d="M16,8c0,4.4-3.6,8-8,8s-8-3.6-8-8s3.6-8,8-8S16,3.6,16,8"/>
<path style="fill:#FFFFFF;" d="M5.1,9.7c0,0-0.1,0-0.1,0c0,0,0,0,0,0L3.6,11l0.1,0.4c0.1,0.7,0.8,1.2,1.5,1l2-0.4c0,0,0.1,0,0.1-0.1
	c0,0,0,0,0,0L5.1,9.7 M4.7,9.4c0,0,0-0.1,0-0.1L3.2,7.7C3.1,7.7,3,7.7,3,7.8l0.5,2.6c0,0.1,0.1,0.1,0.1,0L4.7,9.4 M7.1,6.8
	c0,0,0.1,0,0.1,0c0,0,0,0,0,0l2.4-2.4c0.1-0.1,0-0.2-0.1-0.1l-4,0.8c0,0-0.1,0.1-0.1,0.1c0,0,0,0,0,0L7.1,6.8 M11.7,7.3l1.5,1.5
	c0.1,0.1,0.1,0,0.1-0.1l-0.5-2.6c0,0,0-0.1-0.1-0.1c0,0,0,0,0,0l-1,1C11.6,7.2,11.6,7.3,11.7,7.3C11.7,7.3,11.7,7.3,11.7,7.3
	 M9.6,5.2l1.6,1.7c0,0,0.1,0,0.1,0c0,0,0,0,0,0l1.3-1.3l-0.1-0.5c-0.1-0.7-0.8-1.2-1.5-1l-0.6,0.1L9.6,5.1C9.6,5.1,9.6,5.2,9.6,5.2
	 M5.1,8.9l1.7-1.6c0,0,0-0.1,0-0.2c0,0,0,0,0,0L4.9,5.3l-1,0.2c-0.7,0.1-1.1,0.7-1,1.4l2.1,2.1C5,9,5.1,9,5.1,8.9 M9.3,9L11,7.3
	c0,0,0-0.1,0-0.1L9.3,5.5c0,0-0.1,0-0.1,0c0,0,0,0,0,0L7.5,7.2c0,0,0,0.1,0,0.1L9.2,9C9.2,9,9.2,9,9.3,9C9.3,9,9.3,9,9.3,9 M9.3,9.7
	c0,0-0.1,0-0.1,0c0,0,0,0,0,0l-1.7,1.7c0,0,0,0.1,0,0.1l0.4,0.4l2.8-0.5c0,0,0.1-0.1,0.1-0.1c0,0,0,0,0,0L9.3,9.7 M13.5,9.8
	l-2.1-2.1c0,0-0.1,0-0.1,0c0,0,0,0,0,0L9.6,9.3c0,0,0,0.1,0,0.1l1.8,1.8l1.1-0.2C13.1,10.9,13.5,10.4,13.5,9.8 M7.1,8.8
	c-0.3,0-0.5,0.2-0.5,0.5s0.2,0.5,0.5,0.5c0.3,0,0.5-0.2,0.5-0.5c0,0,0,0,0,0C7.6,9.1,7.4,8.8,7.1,8.8C7.1,8.8,7.1,8.8,7.1,8.8
	 M5.8,4.8l0.4-0.1c0,0,0.1,0,0.1-0.1l0-0.2c0-0.1,0.1-0.3,0.2-0.4c0.1-0.1,0.2-0.2,0.4-0.3l0.9-0.2c0.2,0,0.5,0.1,0.7,0.2
	C8.5,4,8.6,4.1,8.6,4.2c0,0,0.1,0.1,0.1,0.1l0.4-0.1c0,0,0.1-0.1,0.1-0.1c0,0,0,0,0,0c0-0.1-0.1-0.3-0.3-0.6C8.6,3.2,8.1,3,7.7,3.1
	L6.7,3.3c-0.5,0.1-0.9,0.4-1,0.9C5.7,4.4,5.7,4.6,5.8,4.8C5.7,4.8,5.7,4.8,5.8,4.8C5.8,4.8,5.8,4.8,5.8,4.8"/>
</svg>
