<?xml version="1.0" encoding="utf-8"?>
<svg version="1.1"
	 inkscape:version="0.91 r13725" xmlns:cc="http://creativecommons.org/ns#" xmlns:dc="http://purl.org/dc/elements/1.1/" xmlns:inkscape="http://www.inkscape.org/namespaces/inkscape" xmlns:rdf="http://www.w3.org/1999/02/22-rdf-syntax-ns#" xmlns:sodipodi="http://sodipodi.sourceforge.net/DTD/sodipodi-0.dtd" xmlns:svg="http://www.w3.org/2000/svg"
	 xmlns="http://www.w3.org/2000/svg" xmlns:xlink="http://www.w3.org/1999/xlink" x="0px" y="0px" width="16px" height="16px"
	 viewBox="0 0 16 16" style="enable-background:new 0 0 16 16;" preserveAspectRatio="xMidYMid meet" xml:space="preserve">
<sodipodi:namedview  bordercolor="#666666" borderopacity="1.0" fit-margin-bottom="0" fit-margin-left="0" fit-margin-right="0" fit-margin-top="0" id="base" inkscape:current-layer="layer1" inkscape:cx="133.94373" inkscape:cy="222.84368" inkscape:document-units="px" inkscape:pageopacity="0.0" inkscape:pageshadow="2" inkscape:window-height="705" inkscape:window-maximized="1" inkscape:window-width="1366" inkscape:window-x="-8" inkscape:window-y="-8" inkscape:zoom="0.70710678" pagecolor="#ffffff" showgrid="false">
	</sodipodi:namedview>
<g id="layer1" transform="translate(12.494543,6.7556334)" inkscape:groupmode="layer" inkscape:label="Capa 1">
	<g id="g4182">
		<path id="rect4180" d="M-11-6.8H2c0.8,0,1.5,0.7,1.5,1.5V7.8c0,0.8-0.7,1.5-1.5,1.5H-11c-0.8,0-1.5-0.7-1.5-1.5V-5.3
			C-12.5-6.1-11.8-6.8-11-6.8z"/>
		<g id="g5747" transform="matrix(0.29074008,0,0,0.29074008,81.631476,113.77111)">
			
				<path id="path4155" inkscape:connector-curvature="0" style="fill-rule:evenodd;clip-rule:evenodd;fill:#B1060F;stroke:#000000;stroke-width:0.2326;stroke-miterlimit:10;" d="
				M-293.3-405.7l0,8.2l0,8.2l-0.7-1.9c0,0,0,0,0,0l-0.9,18.4c0.9,2.4,1.3,3.7,1.3,3.7c0,0,0.5,0,1.1,0.1c1.8,0.1,4,0.3,5.7,0.5
				c0.4,0,0.7,0.1,0.7,0.1c0,0,0-8.4,0-18.7l0-18.6h-3.7H-293.3z"/>
			
				<path id="path4157" inkscape:connector-curvature="0" style="fill-rule:evenodd;clip-rule:evenodd;fill:#B1060F;stroke:#000000;stroke-width:0.2326;stroke-miterlimit:10;" d="
				M-306.5-405.7v18.7c0,10.3,0,18.7,0,18.7c0,0,0.6,0,1.4-0.1c0.8-0.1,1.8-0.2,2.3-0.2c0.8-0.1,3.2-0.2,3.5-0.2
				c0.1,0,0.1-0.4,0.1-7.9l0-7.9l0.6,1.7c0.1,0.3,0.1,0.3,0.2,0.6l0.9-18.4c-0.2-0.5-0.1-0.2-0.3-0.9c-0.7-2-1.3-3.7-1.4-3.8l0-0.1
				h-3.7H-306.5z"/>
			
				<radialGradient id="path5623_1_" cx="-3393.0132" cy="-1078.4034" r="18.1057" gradientTransform="matrix(7.072386e-02 -2.448786e-02 -0.897 -2.5906 -1023.9012 -3264.0046)" gradientUnits="userSpaceOnUse">
				<stop  offset="0" style="stop-color:#000000"/>
				<stop  offset="1" style="stop-color:#000000;stop-opacity:0"/>
			</radialGradient>
			<path id="path5623" inkscape:connector-curvature="0" style="fill-rule:evenodd;clip-rule:evenodd;fill:url(#path5623_1_);" d="
				M-306.5-405.7v10.5l7.4,19.6c0-0.4,0-0.7,0-1.2l0-7.9l0.6,1.7c3.2,9.2,5,14.1,5,14.1c0,0,0.5,0,1.1,0.1c1.8,0.1,4,0.3,5.7,0.5
				c0.4,0,0.7,0.1,0.7,0.1c0,0,0-4.1,0-9.9l-7.3-21.1l0,2l0,8.2l-0.7-1.9c-0.7-1.9-1.1-3.1-3.8-10.7c-0.7-2-1.3-3.7-1.4-3.8l0-0.1
				h-3.7H-306.5L-306.5-405.7z"/>
			<path id="path4159" inkscape:connector-curvature="0" style="fill-rule:evenodd;clip-rule:evenodd;fill:#E50914;" d="
				M-306.5-405.7l7.4,20.9v0l0.6,1.7c3.2,9.2,5,14.1,5,14.1c0,0,0.5,0,1.1,0.1c1.8,0.1,4,0.3,5.7,0.5c0.4,0,0.7,0.1,0.7,0.1
				l-7.3-20.8v0l-0.7-1.9c-0.7-1.9-1.1-3.1-3.8-10.7c-0.7-2-1.3-3.7-1.4-3.8l0-0.1h-3.7H-306.5L-306.5-405.7z"/>
			
				<path id="path5715" inkscape:connector-curvature="0" style="fill-rule:evenodd;clip-rule:evenodd;fill:#B1060F;stroke:#000000;stroke-width:0.2326;stroke-miterlimit:10;" d="
				M-293.3-405.7l0,8.2l0,8.2l-0.7-1.9c0,0,0,0,0,0l-0.9,18.4c0.9,2.4,1.3,3.7,1.3,3.7c0,0,0.5,0,1.1,0.1c1.8,0.1,4,0.3,5.7,0.5
				c0.4,0,0.7,0.1,0.7,0.1c0,0,0-8.4,0-18.7l0-18.6h-3.7H-293.3z"/>
			
				<path id="path5717" inkscape:connector-curvature="0" style="fill-rule:evenodd;clip-rule:evenodd;fill:#B1060F;stroke:#000000;stroke-width:0.2326;stroke-miterlimit:10;" d="
				M-306.5-405.7v18.7c0,10.3,0,18.7,0,18.7c0,0,0.6,0,1.4-0.1c0.8-0.1,1.8-0.2,2.3-0.2c0.8-0.1,3.2-0.2,3.5-0.2
				c0.1,0,0.1-0.4,0.1-7.9l0-7.9l0.6,1.7c0.1,0.3,0.1,0.3,0.2,0.6l0.9-18.4c-0.2-0.5-0.1-0.2-0.3-0.9c-0.7-2-1.3-3.7-1.4-3.8l0-0.1
				h-3.7H-306.5z"/>
			
				<radialGradient id="path5719_1_" cx="-3393.0132" cy="-1078.4034" r="18.1057" gradientTransform="matrix(7.072386e-02 -2.448786e-02 -0.897 -2.5906 -1023.9012 -3264.0046)" gradientUnits="userSpaceOnUse">
				<stop  offset="0" style="stop-color:#000000"/>
				<stop  offset="1" style="stop-color:#000000;stop-opacity:0"/>
			</radialGradient>
			<path id="path5719" inkscape:connector-curvature="0" style="fill-rule:evenodd;clip-rule:evenodd;fill:url(#path5719_1_);" d="
				M-306.5-405.7v10.5l7.4,19.6c0-0.4,0-0.7,0-1.2l0-7.9l0.6,1.7c3.2,9.2,5,14.1,5,14.1c0,0,0.5,0,1.1,0.1c1.8,0.1,4,0.3,5.7,0.5
				c0.4,0,0.7,0.1,0.7,0.1c0,0,0-4.1,0-9.9l-7.3-21.1l0,2l0,8.2l-0.7-1.9c-0.7-1.9-1.1-3.1-3.8-10.7c-0.7-2-1.3-3.7-1.4-3.8l0-0.1
				h-3.7H-306.5L-306.5-405.7z"/>
			<path id="path5721" inkscape:connector-curvature="0" style="fill-rule:evenodd;clip-rule:evenodd;fill:#E50914;" d="
				M-306.5-405.7l7.4,20.9v0l0.6,1.7c3.2,9.2,5,14.1,5,14.1c0,0,0.5,0,1.1,0.1c1.8,0.1,4,0.3,5.7,0.5c0.4,0,0.7,0.1,0.7,0.1
				l-7.3-20.8v0l-0.7-1.9c-0.7-1.9-1.1-3.1-3.8-10.7c-0.7-2-1.3-3.7-1.4-3.8l0-0.1h-3.7H-306.5L-306.5-405.7z"/>
		</g>
	</g>
</g>
</svg>
