<?xml version="1.0" encoding="utf-8"?>
<svg version="1.1" xmlns="http://www.w3.org/2000/svg" xmlns:xlink="http://www.w3.org/1999/xlink" x="0px" y="0px"
	 width="16px" height="16px" viewBox="0 0 16 16" style="enable-background:new 0 0 16 16;" preserveAspectRatio="xMidYMid meet" xml:space="preserve">
<path style="fill:#2196F3;" d="M10.1,3.5c3.2,0,5.6,2.8,5.4,5.8c-0.1,1.2-0.5,2.3-1.4,3.2c-1,1.1-2.1,2.1-3.2,3.2
	c-0.4,0.4-0.9,0.5-1.4,0.3c-0.5-0.2-0.8-0.6-0.9-1.1c-0.1-0.3,0.1-0.7,0.3-0.9l2.2-2.2c0.4-0.4,0.7-0.7,1-1.1
	c0.7-0.9,0.8-1.9,0.3-2.9C12,6.6,11.1,6.1,10,6.1c-0.7,0-1.2,0.3-1.7,0.7C7.8,7.3,7.4,7.7,6.9,8.2c-0.5,0.4-1,0.5-1.5,0.1
	C4.9,8,4.6,7.4,4.8,6.8c0-0.1,0.1-0.3,0.2-0.4c0.7-0.8,1.4-1.5,2.2-2.1C8,3.7,9.1,3.4,10.1,3.5z"/>
<path style="fill:#2196F3;" d="M5.8,12.5c-3.1,0-5.6-2.8-5.3-5.8C0.6,5.6,1,4.5,1.8,3.6c1-1.1,2.1-2.1,3.1-3.1
	C5,0.4,5.2,0.3,5.3,0.2c0.5-0.3,1-0.3,1.5,0.1c0.4,0.3,0.6,1,0.4,1.5C7.1,2,7,2.2,6.8,2.3C5.9,3.2,5,4.1,4.1,5.1
	C3.8,5.4,3.5,5.8,3.3,6.3C2.8,8,4.1,10,6,9.9c0.7,0,1.2-0.3,1.7-0.7c0.5-0.4,0.9-0.9,1.4-1.3c0.5-0.4,1-0.5,1.5-0.2
	c0.5,0.3,0.8,0.8,0.7,1.4c0,0.2-0.1,0.4-0.2,0.5c-0.7,0.8-1.4,1.5-2.2,2.1C7.9,12.3,6.9,12.5,5.8,12.5z"/>
</svg>
