<?xml version="1.0" encoding="utf-8"?>
<svg version="1.1" xmlns="http://www.w3.org/2000/svg" xmlns:xlink="http://www.w3.org/1999/xlink" x="0px" y="0px"
	 width="16px" height="16px" viewBox="0 0 16 16" style="enable-background:new 0 0 16 16;" preserveAspectRatio="xMidYMid meet" xml:space="preserve">
<linearGradient id="SVGID_1_" gradientUnits="userSpaceOnUse" x1="4.420266e-03" y1="20.0634" x2="4.420266e-03" y2="20.0573" gradientTransform="matrix(2499.9978 0 0 -1386.6951 -3.0507 27825.5625)">
	<stop  offset="0" style="stop-color:#FF8800"/>
	<stop  offset="1" style="stop-color:#FF3300"/>
</linearGradient>
<path style="fill:url(#SVGID_1_);" d="M0,10.8c0,0.2,0.1,0.3,0.2,0.5c0.1,0.1,0.3,0.1,0.5,0.1c0.2,0,0.3-0.1,0.3-0.2
	c0.1-0.1,0.1-0.2,0.1-0.4V8.7c0-0.2-0.1-0.3-0.2-0.4C0.8,8.2,0.7,8.1,0.5,8.1c-0.1,0-0.3,0.1-0.4,0.2C0.1,8.4,0,8.5,0,8.7V10.8z
	 M1.7,11.8c0,0.1,0.1,0.3,0.2,0.3c0.1,0.1,0.2,0.1,0.4,0.1c0.2,0,0.3,0,0.4-0.1c0.1-0.1,0.2-0.2,0.2-0.3v-5c0-0.1-0.1-0.3-0.2-0.4
	C2.5,6.2,2.4,6.2,2.3,6.2C2.1,6.2,2,6.2,1.9,6.4C1.8,6.5,1.7,6.6,1.7,6.7V11.8z M3.4,12c0,0.1,0.1,0.3,0.2,0.3
	c0.1,0.1,0.2,0.1,0.4,0.1c0.2,0,0.3,0,0.4-0.1c0.1-0.1,0.2-0.2,0.2-0.3V7.4c0-0.2-0.1-0.3-0.2-0.4C4.3,6.9,4.1,6.9,4,6.9
	C3.8,6.9,3.7,6.9,3.6,7C3.5,7.1,3.4,7.3,3.4,7.4L3.4,12L3.4,12z M5.1,12c0,0.3,0.2,0.4,0.6,0.4c0.4,0,0.6-0.1,0.6-0.4V4.6
	c0-0.4-0.1-0.7-0.4-0.7c-0.2,0-0.3,0-0.5,0.1C5.2,4.2,5.1,4.3,5.1,4.6L5.1,12L5.1,12z M6.9,12.2V4.1c0-0.3,0.1-0.4,0.2-0.5
	c0.3-0.1,0.7-0.1,1-0.1c0.8,0,1.5,0.2,2.1,0.5c0.7,0.4,1.2,0.8,1.6,1.5c0.4,0.6,0.6,1.3,0.7,2c0.3-0.1,0.6-0.2,1-0.2
	c0.7,0,1.3,0.2,1.8,0.7C15.8,8.6,16,9.2,16,9.9c0,0.7-0.2,1.3-0.7,1.8c-0.5,0.5-1.1,0.7-1.8,0.7l-6.5,0c0,0-0.1,0-0.1-0.1
	S6.9,12.3,6.9,12.2L6.9,12.2z"/>
</svg>
