<?xml version="1.0" encoding="utf-8"?>
<svg version="1.1" xmlns="http://www.w3.org/2000/svg" xmlns:xlink="http://www.w3.org/1999/xlink" x="0px" y="0px"
	 width="16px" height="16px" viewBox="0 0 16 16" style="enable-background:new 0 0 16 16;" preserveAspectRatio="xMidYMid meet" xml:space="preserve">
<rect style="fill-rule:evenodd;clip-rule:evenodd;" width="16" height="16"/>
<g>
	<path style="fill-rule:evenodd;clip-rule:evenodd;fill:#00F2EA;" d="M6.7,6.6V6.1C6.5,6,6.3,6,6.2,6c-2.2,0-4,1.8-4,4
		c0,1.4,0.7,2.6,1.7,3.3c-0.7-0.7-1.1-1.7-1.1-2.8C2.7,8.4,4.5,6.6,6.7,6.6"/>
	<path style="fill-rule:evenodd;clip-rule:evenodd;fill:#00F2EA;" d="M6.8,12.5c1,0,1.8-0.8,1.8-1.8l0-8.8h1.6
		c0-0.2-0.1-0.4-0.1-0.6H8l0,8.8c0,1-0.8,1.8-1.8,1.8c-0.3,0-0.6-0.1-0.9-0.2C5.6,12.2,6.2,12.5,6.8,12.5 M13.3,4.9V4.4
		c-0.6,0-1.2-0.2-1.7-0.5C12,4.4,12.6,4.7,13.3,4.9"/>
	<path style="fill-rule:evenodd;clip-rule:evenodd;fill:#FF004F;" d="M11.6,3.9c-0.5-0.6-0.8-1.3-0.8-2h-0.6
		C10.4,2.7,10.9,3.4,11.6,3.9 M6.2,8.2c-1,0-1.8,0.8-1.8,1.8c0,0.7,0.4,1.3,1,1.6c-0.2-0.3-0.3-0.7-0.3-1.1c0-1,0.8-1.8,1.8-1.8
		c0.2,0,0.4,0,0.5,0.1V6.6c-0.2,0-0.4,0-0.5,0c0,0-0.1,0-0.1,0v1.7C6.5,8.2,6.3,8.2,6.2,8.2"/>
	<path style="fill-rule:evenodd;clip-rule:evenodd;fill:#FF004F;" d="M13.3,4.9v1.7c-1.1,0-2.2-0.4-3.1-1v4.5c0,2.2-1.8,4-4,4
		c-0.9,0-1.7-0.3-2.3-0.7c0.8,0.8,1.8,1.3,3,1.3c2.2,0,4-1.8,4-4V6.2c0.9,0.6,2,1,3.1,1V4.9C13.7,4.9,13.5,4.9,13.3,4.9"/>
	<path style="fill-rule:evenodd;clip-rule:evenodd;fill:#FFFFFF;" d="M10.2,10.1V5.6c0.9,0.6,2,1,3.1,1V4.9c-0.6-0.1-1.2-0.5-1.7-1
		c-0.7-0.5-1.2-1.2-1.3-2H8.6l0,8.8c0,1-0.8,1.8-1.8,1.8c-0.6,0-1.2-0.3-1.5-0.8c-0.6-0.3-1-0.9-1-1.6c0-1,0.8-1.8,1.8-1.8
		c0.2,0,0.4,0,0.5,0.1V6.6c-2.2,0.1-3.9,1.8-3.9,4c0,1.1,0.4,2,1.1,2.8c0.7,0.5,1.5,0.7,2.3,0.7C8.4,14.1,10.2,12.3,10.2,10.1"/>
</g>
</svg>
