<?xml version="1.0" encoding="utf-8"?>
<svg version="1.1" xmlns="http://www.w3.org/2000/svg" xmlns:xlink="http://www.w3.org/1999/xlink" x="0px" y="0px"
	 width="16px" height="16px" viewBox="0 0 16 16" style="enable-background:new 0 0 16 16;" preserveAspectRatio="xMidYMid meet" xml:space="preserve">
<g>
	<rect x="1.9" y="3" style="fill:#FFFFFF;" width="11.6" height="10.1"/>
	<path style="fill:#42B5F7;" d="M16,3v10c0,0.8-0.3,1.5-0.9,2.1C14.5,15.7,13.8,16,13,16H3c-0.8,0-1.5-0.3-2.1-0.9
		C0.3,14.5,0,13.8,0,13V3c0-0.8,0.3-1.5,0.9-2.1S2.2,0,3,0h10c0.8,0,1.5,0.3,2.1,0.9C15.7,1.5,16,2.2,16,3z M13.5,5.3
		c0-1.5-0.5-2.2-1.7-2.3c-1.6,0-2.7,0.9-3.2,2.7c0.3-0.1,0.6-0.2,0.9-0.2c0.6,0,0.9,0.3,0.8,1c0,0.4-0.3,1-0.8,1.7
		C8.9,9,8.5,9.5,8.3,9.5C8,9.5,7.7,8.9,7.5,7.7C7.4,7.3,7.2,6.4,7,5.1s-0.8-2-1.7-1.9c-0.4,0-1,0.4-1.7,1C3.4,4.4,3.1,4.7,2.7,5
		C2.4,5.4,2.1,5.6,1.9,5.8l0.6,0.7C3,6.1,3.3,5.9,3.3,5.9c0.4,0,0.8,0.6,1.1,1.9c0.1,0.4,0.3,1,0.5,1.7s0.4,1.3,0.5,1.7
		c0.5,1.2,1,1.9,1.7,1.9c1.1,0,2.4-1,4-3.1C12.6,8,13.4,6.4,13.5,5.3z"/>
</g>
</svg>
