<?xml version="1.0" encoding="utf-8"?>
<svg version="1.1" xmlns="http://www.w3.org/2000/svg" xmlns:xlink="http://www.w3.org/1999/xlink" x="0px" y="0px"
	 width="16px" height="16px" viewBox="0 0 16 16" style="enable-background:new 0 0 16 16;" preserveAspectRatio="xMidYMid meet" xml:space="preserve">
<g>
	<path style="fill:#FFFFFF;" d="M7.2,13.6c0.5,0,1.1,0,1.6,0c0.5,0,1-0.1,1.5-0.2c3.9-1,6-5.2,4.3-8.9c-1-2.2-2.8-3.4-5.2-3.7
		C7.6,0.6,5.9,1.2,4.5,2.4C3.2,3.6,2.5,5.2,2.4,7c0,0.4,0,0.9,0,1.3c0,0.9-0.5,1.6-1.4,1.9c0,0,0,0,0,0c0.3,0.9,1.7,2.2,2.6,2.6
		C4.6,11.3,6.8,11.9,7.2,13.6L7.2,13.6z"/>
	<path d="M7.2,14.4c-0.1,0.6-0.5,1.1-1,1.3c-0.7,0.4-1.4,0.3-2-0.1c-0.7-0.4-1-1.1-0.9-1.9c0-0.1,0-0.2-0.1-0.2
		c-1.2-0.6-2.1-1.5-2.8-2.7c-0.1-0.2-0.2-0.5-0.3-0.7C0,9.8,0.1,9.6,0.5,9.6c0.4,0,0.8-0.2,1-0.6c0.1-0.2,0.1-0.4,0.1-0.6
		c0-0.5,0-1,0-1.6c0.1-2,1-3.7,2.5-5C5.6,0.5,7.2-0.1,9.1,0c3.3,0.1,6.1,2.4,6.7,5.6c0.6,2.9-0.3,5.3-2.6,7.2
		c-0.1,0.1-0.3,0.2-0.4,0.3c-0.1,0.1-0.1,0.1-0.1,0.2c0.3,0.9-0.1,2-1,2.4c-1.2,0.6-2.5,0-2.9-1.3c0,0-0.1-0.1-0.1-0.1
		C8.2,14.4,7.7,14.4,7.2,14.4L7.2,14.4z M7.2,13.6c0.5,0,1.1,0,1.6,0c0.5,0,1-0.1,1.5-0.2c3.9-1,6-5.2,4.3-8.9
		c-1-2.2-2.8-3.4-5.2-3.7C7.6,0.6,5.9,1.2,4.5,2.4C3.2,3.6,2.5,5.2,2.4,7c0,0.4,0,0.9,0,1.3c0,0.9-0.5,1.6-1.4,1.9c0,0,0,0,0,0
		c0.3,0.9,1.7,2.2,2.6,2.6C4.6,11.3,6.8,11.9,7.2,13.6L7.2,13.6z"/>
	<path d="M9.8,10.4c-1.4-0.1-2.4-0.6-3-1.8C6.6,8.3,6.8,8,7,8c0.2,0,0.3,0.1,0.5,0.3C7.6,8.5,7.8,8.7,8,8.9c1.1,1.1,3,0.7,3.7-0.7
		C11.8,8.1,12,8,12.2,8c0.3,0,0.5,0.3,0.3,0.6c-0.4,0.8-1,1.3-1.8,1.6C10.4,10.3,10,10.3,9.8,10.4L9.8,10.4z"/>
	<path d="M7.2,6.4C6.8,6.4,6.4,6,6.4,5.6s0.4-0.8,0.8-0.8S8,5.1,8,5.6C8,6,7.7,6.4,7.2,6.4L7.2,6.4z"/>
	<path d="M12.8,5.6c0,0.4-0.4,0.8-0.8,0.8c-0.4,0-0.8-0.3-0.8-0.8c0-0.4,0.3-0.8,0.8-0.8C12.4,4.8,12.8,5.1,12.8,5.6L12.8,5.6z"/>
</g>
</svg>
