<?xml version="1.0" encoding="utf-8"?>
<svg version="1.1" id="Layer_1" xmlns="http://www.w3.org/2000/svg" xmlns:xlink="http://www.w3.org/1999/xlink" x="0px" y="0px"
	 width="37px" height="37px" viewBox="0 0 37 37" style="enable-background:new 0 0 37 37;" preserveAspectRatio="xMidYMid meet" xml:space="preserve">
<path style="fill:#00E676;" d="M9.9,31.8l0.6,0.3c2.5,1.5,5.3,2.2,8.1,2.2l0,0c8.8,0,16-7.2,16-16c0-4.2-1.7-8.3-4.7-11.3
	s-7-4.7-11.3-4.7c-8.8,0-16,7.2-15.9,16.1c0,3,0.9,5.9,2.4,8.4l0.4,0.6l-1.6,5.9L9.9,31.8z"/>
<path style="fill:#FFFFFF;" d="M31.6,5.4C28.2,1.9,23.5,0,18.7,0C8.5,0,0.3,8.3,0.4,18.4c0,3.2,0.9,6.3,2.4,9.1L0.2,37l9.7-2.5
	c2.7,1.5,5.7,2.2,8.7,2.2l0,0c10.1,0,18.3-8.3,18.3-18.4C36.9,13.4,35,8.8,31.6,5.4z M18.7,33.6L18.7,33.6c-2.7,0-5.4-0.7-7.7-2.1
	l-0.6-0.3l-5.8,1.5L6.1,27l-0.4-0.6C1.3,19.3,3.4,9.9,10.6,5.5s16.5-2.3,20.9,4.9s2.3,16.5-4.9,20.9C24.3,32.8,21.5,33.6,18.7,33.6z
	 M27.5,22.5L26.4,22c0,0-1.6-0.7-2.6-1.2c-0.1,0-0.2-0.1-0.3-0.1c-0.3,0-0.5,0.1-0.7,0.2l0,0c0,0-0.1,0.1-1.5,1.7
	c-0.1,0.2-0.3,0.3-0.5,0.3h-0.1c-0.1,0-0.3-0.1-0.4-0.2l-0.5-0.2l0,0c-1.1-0.5-2.1-1.1-2.9-1.9c-0.2-0.2-0.5-0.4-0.7-0.6
	c-0.7-0.7-1.4-1.5-1.9-2.4l-0.1-0.2c-0.1-0.1-0.1-0.2-0.2-0.4c0-0.2,0-0.4,0.1-0.5c0,0,0.4-0.5,0.7-0.8c0.2-0.2,0.3-0.5,0.5-0.7
	c0.2-0.3,0.3-0.7,0.2-1c-0.1-0.5-1.3-3.2-1.6-3.8c-0.2-0.3-0.4-0.4-0.7-0.5h-0.3c-0.2,0-0.5,0-0.8,0c-0.2,0-0.4,0.1-0.6,0.1
	l-0.1,0.1c-0.2,0.1-0.4,0.3-0.6,0.4c-0.2,0.2-0.3,0.4-0.5,0.6c-0.7,0.9-1.1,2-1.1,3.1l0,0c0,0.8,0.2,1.6,0.5,2.3l0.1,0.3
	c0.9,1.9,2.1,3.6,3.7,5.1l0.4,0.4c0.3,0.3,0.6,0.5,0.8,0.8c2.1,1.8,4.5,3.1,7.2,3.8c0.3,0.1,0.7,0.1,1,0.2l0,0c0.3,0,0.7,0,1,0
	c0.5,0,1.1-0.2,1.5-0.4c0.3-0.2,0.5-0.2,0.7-0.4l0.2-0.2c0.2-0.2,0.4-0.3,0.6-0.5s0.4-0.4,0.5-0.6c0.2-0.4,0.3-0.9,0.4-1.4
	c0-0.2,0-0.5,0-0.7C27.8,22.7,27.7,22.6,27.5,22.5z"/>
</svg>
