<?xml version="1.0" encoding="utf-8"?>
<svg version="1.1"
	 inkscape:version="0.91 r13725" xmlns:cc="http://creativecommons.org/ns#" xmlns:dc="http://purl.org/dc/elements/1.1/" xmlns:inkscape="http://www.inkscape.org/namespaces/inkscape" xmlns:rdf="http://www.w3.org/1999/02/22-rdf-syntax-ns#" xmlns:sodipodi="http://sodipodi.sourceforge.net/DTD/sodipodi-0.dtd" xmlns:svg="http://www.w3.org/2000/svg"
	 xmlns="http://www.w3.org/2000/svg" xmlns:xlink="http://www.w3.org/1999/xlink" x="0px" y="0px" width="16px" height="16px"
	 viewBox="0 0 16 16" style="enable-background:new 0 0 16 16;" preserveAspectRatio="xMidYMid meet" xml:space="preserve">
<g id="g5" transform="scale(0.58823529,0.58823529)">
	<path id="path7" inkscape:connector-curvature="0" style="fill:#FF0000;" d="M26.6,7.1c-0.3-1.2-1.2-2.1-2.4-2.4
		c-2.1-0.6-10.6-0.6-10.6-0.6S5.1,4.1,3,4.6C1.8,5,0.9,5.9,0.6,7.1C0,9.2,0,13.6,0,13.6s0,4.4,0.6,6.5c0.3,1.2,1.2,2.1,2.4,2.4
		c2.2,0.6,10.6,0.6,10.6,0.6s8.5,0,10.6-0.6c1.2-0.3,2.1-1.2,2.4-2.4c0.6-2.1,0.6-6.5,0.6-6.5S27.2,9.2,26.6,7.1z"/>
	<polygon id="polygon9" style="fill:#FFFFFF;" points="18,13.6 10.9,9.5 10.9,17.7 	"/>
</g>
</svg>
